HIERARCHY
ROOT hip
{
  OFFSET 0 0 0
  CHANNELS 6 Xposition Yposition Zposition Zrotation Yrotation Xrotation
  JOINT abdomen
  {
    OFFSET 0 20.6881 -0.73152
    CHANNELS 3 Zrotation Xrotation Yrotation
    JOINT chest
    {
      OFFSET 0 11.7043 -0.48768
      CHANNELS 3 Zrotation Xrotation Yrotation
      JOINT neck
      {
        OFFSET 0 22.1894 -2.19456
        CHANNELS 3 Zrotation Xrotation Yrotation
        JOINT head
        {
          OFFSET -0.24384 7.07133 1.2192
          CHANNELS 3 Zrotation Xrotation Yrotation
          JOINT leftEye
          {
            OFFSET 4.14528 8.04674 8.04672
            CHANNELS 3 Zrotation Xrotation Yrotation
            End Site
            {
              OFFSET 1 0 0
            }
          }
          JOINT rightEye
          {
            OFFSET -3.6576 8.04674 8.04672
            CHANNELS 3 Zrotation Xrotation Yrotation
            End Site
            {
              OFFSET 1 0 0
            }
          }
        }
      }
      JOINT rCollar
      {
        OFFSET -2.68224 19.2634 -4.8768
        CHANNELS 3 Zrotation Xrotation Yrotation
        JOINT rShldr
        {
          OFFSET -8.77824 -1.95073 1.46304
          CHANNELS 3 Zrotation Xrotation Yrotation
          JOINT rForeArm
          {
            OFFSET -28.1742 -1.7115 0.48768
            CHANNELS 3 Zrotation Xrotation Yrotation
            JOINT rHand
            {
              OFFSET -22.5879 0.773209 7.07136
              CHANNELS 3 Zrotation Xrotation Yrotation
              JOINT rThumb1
              {
                OFFSET -1.2192 -0.487915 3.41376
                CHANNELS 3 Zrotation Xrotation Yrotation
                JOINT rThumb2
                {
                  OFFSET -3.37035 -0.52449 3.41376
                  CHANNELS 3 Zrotation Xrotation Yrotation
                  End Site
                  {
                    OFFSET -1.78271 -1.18214 1.43049
                  }
                }
              }
              JOINT rIndex1
              {
                OFFSET -7.75947 0.938293 5.60832
                CHANNELS 3 Zrotation Xrotation Yrotation
                JOINT rIndex2
                {
                  OFFSET -2.54057 -0.884171 1.56538
                  CHANNELS 3 Zrotation Xrotation Yrotation
                  End Site
                  {
                    OFFSET -1.62519 -0.234802 1.16502
                  }
                }
              }
              JOINT rMid1
              {
                OFFSET -8.24714 1.18213 3.41376
                CHANNELS 3 Zrotation Xrotation Yrotation
                JOINT rMid2
                {
                  OFFSET -3.10165 -0.590103 1.0647
                  CHANNELS 3 Zrotation Xrotation Yrotation
                  End Site
                  {
                    OFFSET -2.48547 -0.328903 0.83742
                  }
                }
              }
              JOINT rRing1
              {
                OFFSET -8.82822 0.546677 1.51678
                CHANNELS 3 Zrotation Xrotation Yrotation
                JOINT rRing2
                {
                  OFFSET -2.60934 -0.819778 -0.0198488
                  CHANNELS 3 Zrotation Xrotation Yrotation
                  End Site
                  {
                    OFFSET -2.33842 -0.294052 0.168128
                  }
                }
              }
              JOINT rPinky1
              {
                OFFSET -8.27202 -0.0477905 -0.4584
                CHANNELS 3 Zrotation Xrotation Yrotation
                JOINT rPinky2
                {
                  OFFSET -1.82734 -0.647385 -0.700984
                  CHANNELS 3 Zrotation Xrotation Yrotation
                  End Site
                  {
                    OFFSET -1.69225 -0.51767 -0.607171
                  }
                }
              }
            }
          }
        }
      }
      JOINT lCollar
      {
        OFFSET 2.68224 19.2634 -4.8768
        CHANNELS 3 Zrotation Xrotation Yrotation
        JOINT lShldr
        {
          OFFSET 8.77824 -1.95073 1.46304
          CHANNELS 3 Zrotation Xrotation Yrotation
          JOINT lForeArm
          {
            OFFSET 28.1742 -1.7115 0.48768
            CHANNELS 3 Zrotation Xrotation Yrotation
            JOINT lHand
            {
              OFFSET 22.5879 0.773209 7.07136
              CHANNELS 3 Zrotation Xrotation Yrotation
              JOINT lThumb1
              {
                OFFSET 1.2192 -0.487915 3.41376
                CHANNELS 3 Zrotation Xrotation Yrotation
                JOINT lThumb2
                {
                  OFFSET 3.37035 -0.52449 3.41376
                  CHANNELS 3 Zrotation Xrotation Yrotation
                  End Site
                  {
                    OFFSET 1.78271 -1.18214 1.43049
                  }
                }
              }
              JOINT lIndex1
              {
                OFFSET 7.75947 0.938293 5.60832
                CHANNELS 3 Zrotation Xrotation Yrotation
                JOINT lIndex2
                {
                  OFFSET 2.54057 -0.884171 1.56538
                  CHANNELS 3 Zrotation Xrotation Yrotation
                  End Site
                  {
                    OFFSET 1.62519 -0.234802 1.16502
                  }
                }
              }
              JOINT lMid1
              {
                OFFSET 8.24714 1.18213 3.41376
                CHANNELS 3 Zrotation Xrotation Yrotation
                JOINT lMid2
                {
                  OFFSET 3.10165 -0.590103 1.0647
                  CHANNELS 3 Zrotation Xrotation Yrotation
                  End Site
                  {
                    OFFSET 2.48547 -0.328903 0.83742
                  }
                }
              }
              JOINT lRing1
              {
                OFFSET 8.82822 0.546677 1.51678
                CHANNELS 3 Zrotation Xrotation Yrotation
                JOINT lRing2
                {
                  OFFSET 2.60934 -0.819778 -0.0198488
                  CHANNELS 3 Zrotation Xrotation Yrotation
                  End Site
                  {
                    OFFSET 2.33842 -0.294052 0.168128
                  }
                }
              }
              JOINT lPinky1
              {
                OFFSET 8.27202 -0.0477905 -0.4584
                CHANNELS 3 Zrotation Xrotation Yrotation
                JOINT lPinky2
                {
                  OFFSET 1.82734 -0.647385 -0.700984
                  CHANNELS 3 Zrotation Xrotation Yrotation
                  End Site
                  {
                    OFFSET 1.69225 -0.51767 -0.607171
                  }
                }
              }
            }
          }
        }
      }
    }
  }
  JOINT rButtock
  {
    OFFSET -8.77824 4.35084 1.2192
    CHANNELS 3 Zrotation Xrotation Yrotation
    JOINT rThigh
    {
      OFFSET 0 -1.70687 -2.19456
      CHANNELS 3 Zrotation Xrotation Yrotation
      JOINT rShin
      {
        OFFSET 0 -36.8199 0.73152
        CHANNELS 3 Zrotation Xrotation Yrotation
        JOINT rFoot
        {
          OFFSET 0.73152 -45.1104 -5.12064
          CHANNELS 3 Zrotation Xrotation Yrotation
          End Site
          {
            OFFSET -1.1221 -3.69964 12.103
          }
        }
      }
    }
  }
  JOINT lButtock
  {
    OFFSET 8.77824 4.35084 1.2192
    CHANNELS 3 Zrotation Xrotation Yrotation
    JOINT lThigh
    {
      OFFSET 0 -1.70687 -2.19456
      CHANNELS 3 Zrotation Xrotation Yrotation
      JOINT lShin
      {
        OFFSET 0 -36.8199 0.73152
        CHANNELS 3 Zrotation Xrotation Yrotation
        JOINT lFoot
        {
          OFFSET -0.73152 -45.1104 -5.12064
          CHANNELS 3 Zrotation Xrotation Yrotation
          End Site
          {
            OFFSET 1.1221 -3.69964 12.103
          }
        }
      }
    }
  }
}
MOTION
Frames:	5
Frame Time:	0.00833333
51.3869 85.5269 144.523 0.0 0.0 0.0 2.34099 -0.00222392 0.0637209 0.646592 0.00595027 0.111937 2.39674e-14 -7.95139e-16 1.73937e-16 7.26496e-14 3.18055e-15 4.69008e-16 -0.0 0.0 0.0 -0.0 0.0 0.0 1.18758e-14 -1.10263e-16 1.98785e-16 2.54534e-13 -2.46617e-15 2.98177e-15 4.36476e-12 -1.39169e-12 -1.59028e-14 5.00058e-11 8.71795e-13 3.81667e-13 1.17948e-10 -1.12603e-12 8.0468e-13 2.03693e-10 -1.9465e-12 1.37479e-12 1.17951e-10 -1.12631e-12 7.82416e-13 7.73091 5.47488 0.417314 1.17948e-10 -1.12621e-12 8.015e-13 2.90554 0.965183 0.102902 1.17951e-10 -1.12631e-12 7.97524e-13 10.2786 0.731801 0.0259123 1.1794e-10 -1.12512e-12 8.11041e-13 2.22167 -0.733487 -0.20892 1.17804e-14 -1.12981e-16 -9.93923e-17 2.50927e-13 -2.49102e-15 1.39149e-15 4.37113e-12 1.22392e-12 -9.54166e-15 4.99949e-11 -1.74883e-12 3.88028e-13 1.17947e-10 -1.13792e-12 8.07861e-13 2.03696e-10 -1.9624e-12 1.39149e-12 1.17943e-10 -1.13546e-12 8.23764e-13 -7.73091 5.47488 -0.417314 1.17947e-10 -1.13774e-12 8.015e-13 -2.90554 0.965183 -0.102902 1.17943e-10 -1.13774e-12 8.06271e-13 -10.2786 0.731801 -0.0259123 1.17955e-10 -1.13546e-12 7.98319e-13 -2.22167 -0.733487 0.20892 -2.03217e-16 0.0 -3.88251e-19 2.21578 -8.0297 -0.23138 0.00606981 8.97362 0.152054 -0.477999 -0.951428 0.0348972 2.03217e-16 0.0 3.88251e-19 1.35236 -1.92788 -0.00536287 0.00846441 -2.07867 0.0694409 0.423553 3.99898 -0.127244
51.5348 84.9963 132.237 179.771 -5.0478 177.279 3.02459 1.15852 1.89627 0.0165868 -2.28292 0.630069 2.15321 3.98609 4.69639 -2.99866 -7.03293 8.71143 -0.0 0.0 0.0 -0.0 0.0 0.0 1.74808e-14 -7.88887e-15 7.24931e-14 22.5677 12.4874 -3.7814 -5.05001 -2.4883 7.66598 0.0515606 5.05583 0.70071 1.06312e-10 -2.66662e-10 1.9474e-10 1.868e-10 -4.62401e-10 3.36318e-10 1.06316e-10 -2.66663e-10 1.9472e-10 7.73091 5.47488 0.417314 1.06312e-10 -2.66663e-10 1.94738e-10 2.90554 0.965183 0.102902 1.06315e-10 -2.66663e-10 1.94734e-10 10.2786 0.731801 0.0259123 1.06306e-10 -2.66661e-10 1.94746e-10 2.22167 -0.733487 -0.20892 1.73406e-14 -7.89091e-15 7.22039e-14 -22.1468 9.28916 2.38243 5.21331 -2.6072 -7.86718 -0.0233229 3.38868 -0.473244 8.61109e-11 2.35473e-11 4.18876e-11 1.49203e-10 4.1722e-11 7.21683e-11 8.61013e-11 2.35535e-11 4.19017e-11 -7.73091 5.47488 -0.417314 8.61076e-11 2.35458e-11 4.18791e-11 -2.90554 0.965183 -0.102902 8.61069e-11 2.35484e-11 4.1886e-11 -10.2786 0.731801 -0.0259123 8.61157e-11 2.35511e-11 4.18798e-11 -2.22167 -0.733487 0.20892 -2.03217e-16 0.0 -3.88251e-19 4.07091 -7.19423 2.94203 0.0381558 12.757 0.244786 -1.57381 -5.13662 -8.35807 2.03217e-16 0.0 3.88251e-19 0.0760295 -3.09907 -5.11994 -0.00632566 4.02266 -0.0897563 0.813871 -0.99678 3.62638
51.5245 84.9921 132.241 179.728 -5.0594 177.294 3.66376 2.39054 3.83481 -0.605149 -4.70154 1.18054 3.71334 8.10353 9.73699 -3.81197 -13.9139 18.3449 -0.0 0.0 0.0 -0.0 0.0 0.0 2.40727e-14 -1.64982e-14 1.54303e-13 48.3911 25.4969 -8.42149 -9.67307 -4.97166 15.8185 -0.0303817 10.352 1.45346 9.02934e-11 -5.54574e-10 4.02851e-10 1.62553e-10 -9.61773e-10 6.95822e-10 9.02969e-11 -5.54575e-10 4.02834e-10 7.73091 5.47488 0.417314 9.02938e-11 -5.54577e-10 4.02852e-10 2.90554 0.965183 0.102902 9.02968e-11 -5.54576e-10 4.02848e-10 10.2786 0.731801 0.0259123 9.02886e-11 -5.54573e-10 4.02858e-10 2.22167 -0.733487 -0.20892 2.38826e-14 -1.64995e-14 1.54021e-13 -46.4415 19.0501 5.11486 9.95265 -5.19873 -16.2342 0.013296 6.96916 -0.978914 5.16435e-11 4.90373e-11 8.35943e-11 9.02023e-11 8.68989e-11 1.44001e-10 5.16274e-11 4.90474e-11 8.36064e-11 -7.73091 5.47488 -0.417314 5.1637e-11 4.9034e-11 8.35832e-11 -2.90554 0.965183 -0.102902 5.16394e-11 4.90395e-11 8.35926e-11 -10.2786 0.731801 -0.0259123 5.16448e-11 4.90426e-11 8.35884e-11 -2.22167 -0.733487 0.20892 -2.03217e-16 0.0 -3.88251e-19 5.92881 -6.28723 6.2856 0.0581551 16.76 0.347176 -4.06193 -9.24091 -17.3932 2.03217e-16 0.0 3.88251e-19 -1.50345 -4.27992 -10.5385 0.0153667 10.4702 -0.261801 1.93905 -6.22307 7.63975
51.5378 84.9913 132.237 179.826 -5.1463 177.276 4.16906 3.46552 5.57041 -1.11845 -6.85818 1.67683 4.48662 11.6341 14.3561 -2.52236 -19.1042 27.5719 -0.0 0.0 0.0 -0.0 0.0 0.0 2.86909e-14 -2.34461e-14 2.17082e-13 73.6444 36.7256 -13.8674 -13.1999 -6.93154 23.1551 -0.227594 15.1583 2.16947 8.30414e-11 -7.97734e-10 5.8261e-10 1.53013e-10 -1.38331e-09 1.0062e-09 8.3045e-11 -7.97735e-10 5.82595e-10 7.73091 5.47488 0.417314 8.30419e-11 -7.97738e-10 5.82612e-10 2.90554 0.965183 0.102902 8.3045e-11 -7.97736e-10 5.82608e-10 10.2786 0.731801 0.0259123 8.30379e-11 -7.97733e-10 5.82616e-10 2.22167 -0.733487 -0.20892 2.84612e-14 -2.34468e-14 2.1681e-13 -69.0048 27.6619 7.96931 13.5452 -7.23301 -23.7777 0.100228 10.1633 -1.43985 2.24386e-11 7.29176e-11 1.24047e-10 4.02177e-11 1.29091e-10 2.13722e-10 2.24173e-11 7.29315e-11 1.24058e-10 -7.73091 5.47488 -0.417314 2.24296e-11 7.29128e-11 1.24034e-10 -2.90554 0.965183 -0.102902 2.24343e-11 7.29207e-11 1.24045e-10 -10.2786 0.731801 -0.0259123 2.2437e-11 7.29241e-11 1.24043e-10 -2.22167 -0.733487 0.20892 -2.03217e-16 0.0 -3.88251e-19 7.50193 -5.47949 9.25742 0.0630304 20.3234 0.443452 -7.38216 -12.3649 -25.6799 2.03217e-16 0.0 3.88251e-19 -3.09661 -5.2832 -15.3936 0.0687959 16.2249 -0.424295 3.57073 -10.785 11.3341
51.5416 84.9862 132.247 179.908 -5.3014 177.329 4.49934 4.1619 6.78974 -1.44905 -8.36216 2.02783 4.68428 14.0053 17.6687 -0.579179 -21.9746 34.4004 -0.0 0.0 0.0 -0.0 0.0 0.0 2.83747e-14 -2.62404e-14 2.3228e-13 93.0002 44.1835 -18.9863 -15.3449 -8.09248 28.3014 -0.451437 18.7479 2.73412 9.77066e-11 -9.29013e-10 6.91484e-10 1.80244e-10 -1.61026e-09 1.19378e-09 9.77102e-11 -9.29015e-10 6.91472e-10 7.73091 5.47488 0.417314 9.77071e-11 -9.29017e-10 6.91488e-10 2.90554 0.965183 0.102902 9.77101e-11 -9.29015e-10 6.91484e-10 10.2786 0.731801 0.0259123 9.77041e-11 -9.29012e-10 6.91491e-10 2.22167 -0.733487 -0.20892 2.81317e-14 -2.62407e-14 2.32031e-13 -85.3601 33.593 10.3589 15.7251 -8.43428 -29.0945 0.192188 12.394 -1.76984 6.38974e-12 9.27736e-11 1.61365e-10 1.27747e-11 1.63821e-10 2.78163e-10 6.36668e-12 9.27907e-11 1.61375e-10 -7.73091 5.47488 -0.417314 6.37985e-12 9.27679e-11 1.61353e-10 -2.90554 0.965183 -0.102902 6.38519e-12 9.27768e-11 1.61364e-10 -10.2786 0.731801 -0.0259123 6.38715e-12 9.27804e-11 1.61362e-10 -2.22167 -0.733487 0.20892 -2.03217e-16 0.0 -3.88251e-19 8.56333 -4.94288 11.3203 0.0586754 22.7875 0.51369 -10.2543 -14.1145 -31.5976 2.03217e-16 0.0 3.88251e-19 -4.29913 -5.97946 -18.804 0.126833 20.2478 -0.546223 5.07058 -13.8927 14.0066
